<svg xmlns="http://www.w3.org/2000/svg" xmlns:xlink="http://www.w3.org/1999/xlink" version="1.1" x="0px" y="0px" viewBox="0 0 2048 2560" style="enable-background:new 0 0 2048 2048;" xml:space="preserve"><g><g><g><g><path d="M1152,930.6c-6.1,0-12.2-2.3-16.8-6.9c-9.4-9.3-9.6-24.5-0.3-33.9c52.7-53.5,95-104.2,125.9-150.6      c38.6-58.1,58.2-107.9,58.2-148.1c0-32.6-5.3-64.5-15.6-95c-31-91.2-106.1-162.2-198.1-188.6l-61.3,91.9      c-4.5,6.7-11.9,10.7-20,10.7s-15.5-4-20-10.7l-61.3-91.9c-92,26.4-167.1,97.4-198.1,188.6c-10.4,30.5-15.6,62.5-15.6,95      c0,40.1,19.6,90,58.2,148.1c30.8,46.4,73.2,97.1,125.9,150.6c9.3,9.4,9.2,24.6-0.3,33.9s-24.6,9.2-33.9-0.3      c-54.8-55.7-99.1-108.8-131.6-157.7c-44-66.1-66.2-124.9-66.2-174.6c0-37.8,6.1-75,18.2-110.5c18.7-55,51.5-104.8,94.9-144      c43.6-39.4,96.8-67.1,153.9-80c9.7-2.2,19.8,1.8,25.3,10.1l50.7,76.1l50.7-76.1c5.5-8.3,15.6-12.3,25.3-10.1      c57.1,12.9,110.3,40.6,153.9,80c43.4,39.2,76.2,89,94.9,144c12.1,35.5,18.2,72.6,18.2,110.5c0,49.8-22.3,108.5-66.2,174.6      c-32.5,48.9-76.8,102-131.6,157.7C1164.4,928.2,1158.2,930.6,1152,930.6z"/></g></g><g><g><path d="M1415,1127.7c-8.7,0-17.6-0.2-26.8-0.6c-58.7-2.5-127-12.9-203-31c-12.9-3.1-20.9-16-17.8-28.9      c3.1-12.9,16-20.9,28.9-17.8c73.1,17.4,138.4,27.4,194,29.8c69.7,3,122.4-6,156.8-26.8c114.1-69,166.9-202.7,132.1-329.7      l-110.4-4.9c-8-0.4-15.3-4.7-19.5-11.6c-4.2-6.9-4.6-15.4-1.2-22.6l46.9-100c-70.2-65.1-169.8-92.6-263.9-71.9      c-12.9,2.8-25.7-5.4-28.6-18.3c-2.8-12.9,5.3-25.7,18.3-28.6c56.8-12.5,116.4-10.2,172.3,6.7c56.3,16.9,107.5,48.2,148.1,90.3      c6.9,7.2,8.7,17.8,4.4,26.8l-38.9,82.8l91.4,4c9.9,0.4,18.6,7,21.7,16.4c24.2,72.6,23.1,152.5-3.1,224.8      c-13.1,36.1-31.9,69.5-56,99.2c-24.9,30.8-54.9,56.8-89,77.5C1534.2,1116.2,1481.5,1127.7,1415,1127.7z"/></g></g><g><g><path d="M633,1127.7c-66.6,0-119.2-11.5-156.9-34.3c-34.2-20.7-64.1-46.7-89-77.5c-24.1-29.7-42.9-63.1-56-99.2      c-26.2-72.4-27.2-152.2-3.1-224.8c3.1-9.4,11.8-16,21.7-16.4l91.4-4l-38.9-82.8c-4.2-9-2.5-19.7,4.4-26.8      c40.6-42.1,91.8-73.4,148.1-90.3c56-16.8,115.6-19.1,172.3-6.7c12.9,2.8,21.1,15.6,18.3,28.6c-2.8,12.9-15.6,21.1-28.6,18.3      c-94.1-20.7-193.7,6.8-263.9,71.9l46.9,100c3.4,7.3,3,15.8-1.2,22.6c-4.2,6.9-11.5,11.2-19.5,11.6l-110.4,4.9      c-34.8,127,18,260.7,132.1,329.7c34.3,20.8,87.1,29.8,156.8,26.8c55.6-2.4,120.9-12.4,194-29.8c12.9-3.1,25.8,4.9,28.9,17.8      s-4.9,25.8-17.8,28.9c-76.1,18.1-144.4,28.5-203,31C650.6,1127.6,641.7,1127.7,633,1127.7z"/></g></g><g><g><path d="M1094.7,1792c-7.9,0-15.5-3.9-20-10.7l-50.7-76.1l-50.7,76.1c-5.5,8.3-15.6,12.3-25.3,10.1      c-74.6-16.9-142.4-59.1-190.8-119c-24.2-29.9-43-63.3-56-99.2c-13.4-37.2-20.2-76.4-20.2-116.3c0-49.8,22.3-108.5,66.2-174.6      c32.5-48.9,76.8-102,131.6-157.7c9.3-9.4,24.5-9.6,33.9-0.3s9.6,24.5,0.3,33.9c-52.7,53.5-95,104.2-125.9,150.6      c-38.6,58.1-58.2,107.9-58.2,148.1c0,133.3,87.1,247.7,213.7,283.7l61.3-91.9c4.5-6.7,11.9-10.7,20-10.7s15.5,4,20,10.7      l61.3,91.9c126.6-35.9,213.7-150.3,213.7-283.7c0-40.1-19.6-90-58.2-148.1c-30.8-46.4-73.2-97.1-125.9-150.6      c-9.3-9.4-9.2-24.6,0.3-33.9c9.4-9.3,24.6-9.2,33.9,0.3c54.8,55.7,99.1,108.8,131.6,157.7c43.9,66.1,66.2,124.9,66.2,174.6      c0,39.9-6.8,79.1-20.2,116.3c-13,36-31.8,69.4-56,99.2c-48.4,59.8-116.2,102.1-190.8,119C1098.2,1791.8,1096.5,1792,1094.7,1792      z"/></g></g><g><g><path d="M1394.1,1591c-24.6,0-49.1-2.6-73.2-7.9c-12.9-2.8-21.1-15.6-18.3-28.6c2.8-12.9,15.6-21.1,28.6-18.3      c94.1,20.7,193.7-6.8,263.9-71.9l-46.9-100c-3.4-7.3-3-15.8,1.2-22.6c4.2-6.9,11.5-11.2,19.5-11.6l110.3-4.9      c27.1-100.1-1.3-210.2-74.6-284.4c-9.3-9.4-9.2-24.6,0.2-33.9c9.4-9.3,24.6-9.2,33.9,0.2c44.3,44.9,75.3,101.2,89.7,162.9      c14.4,61.8,11.5,126.1-8.4,186.1c-3.1,9.4-11.8,16-21.7,16.4l-91.4,4l38.9,82.8c4.2,9,2.5,19.7-4.4,26.8      c-40.6,42.1-91.8,73.4-148.1,90.3C1461,1586.1,1427.5,1591,1394.1,1591z M1697.2,1348.5L1697.2,1348.5L1697.2,1348.5z"/></g></g><g><g><path d="M653.9,1591c-33.4,0-66.9-4.9-99.2-14.6c-56.3-16.9-107.5-48.2-148.1-90.3c-6.9-7.2-8.7-17.8-4.4-26.8l38.9-82.8      l-91.4-4c-9.9-0.4-18.6-7-21.7-16.4c-19.9-59.9-22.9-124.2-8.4-186.1c14.4-61.7,45.4-118,89.7-162.9c9.3-9.4,24.5-9.5,33.9-0.2      c9.4,9.3,9.5,24.5,0.2,33.9c-73.3,74.2-101.7,184.3-74.6,284.4l110.3,4.9c8,0.4,15.3,4.7,19.5,11.6c4.2,6.9,4.6,15.4,1.2,22.6      l-46.9,100c70.2,65.1,169.8,92.6,263.9,71.9c12.9-2.8,25.7,5.3,28.6,18.3c2.8,12.9-5.3,25.7-18.3,28.6      C703,1588.4,678.5,1591,653.9,1591z"/></g></g><g><path d="M1024,1221.7c-109,0-197.7-88.7-197.7-197.7S915,826.3,1024,826.3s197.7,88.7,197.7,197.7S1133,1221.7,1024,1221.7z      M1024,874.3c-82.5,0-149.7,67.2-149.7,149.7s67.2,149.7,149.7,149.7s149.7-67.2,149.7-149.7S1106.5,874.3,1024,874.3z"/></g><g><path d="M974.4,874.3c-9.8,0-19-6.1-22.6-15.8l-99.3-272.9c-4.5-12.5,1.9-26.2,14.4-30.8c12.5-4.5,26.2,1.9,30.8,14.4l99.3,272.9     c4.5,12.5-1.9,26.2-14.4,30.8C979.9,873.8,977.1,874.3,974.4,874.3z"/></g><g><path d="M1073.6,874.3c-2.7,0-5.5-0.5-8.2-1.5c-12.5-4.5-18.9-18.3-14.4-30.8l99.3-272.9c4.5-12.5,18.3-18.9,30.8-14.4     c12.5,4.5,18.9,18.3,14.4,30.8l-99.3,272.9C1092.6,868.3,1083.4,874.3,1073.6,874.3z"/></g><g><path d="M875.1,1445c-2.7,0-5.5-0.5-8.2-1.5c-12.5-4.5-18.9-18.3-14.4-30.8l85.5-235.2c4.5-12.5,18.3-18.9,30.8-14.4     c12.5,4.5,18.9,18.3,14.4,30.8l-85.5,235.2C894.1,1439,884.9,1445,875.1,1445z"/></g><g><path d="M1172.9,1445c-9.8,0-19-6.1-22.6-15.8l-85.5-235.2c-4.5-12.5,1.9-26.2,14.4-30.8c12.5-4.5,26.2,1.9,30.8,14.4l85.5,235.2     c4.5,12.5-1.9,26.2-14.4,30.8C1178.4,1444.6,1175.6,1445,1172.9,1445z"/></g><g><path d="M602.2,1246.5c-9.8,0-19-6.1-22.6-15.8c-4.5-12.5,1.9-26.2,14.4-30.8l272.9-99.3c12.5-4.5,26.2,1.9,30.8,14.4     s-1.9,26.2-14.4,30.8l-272.9,99.3C607.7,1246,604.9,1246.5,602.2,1246.5z"/></g><g><path d="M859.3,992.6c-2.7,0-5.5-0.5-8.2-1.5L594,897.7c-12.5-4.5-18.9-18.3-14.4-30.8c4.5-12.5,18.3-18.9,30.8-14.4l257.1,93.5     c12.5,4.5,18.9,18.3,14.4,30.8C878.3,986.6,869.1,992.6,859.3,992.6z"/></g><g><path d="M1445.8,1246.5c-2.7,0-5.5-0.5-8.2-1.5l-272.9-99.3c-12.5-4.5-18.9-18.3-14.4-30.8c4.5-12.5,18.3-18.9,30.8-14.4     L1454,1200c12.5,4.5,18.9,18.3,14.4,30.8C1464.8,1240.5,1455.6,1246.5,1445.8,1246.5z"/></g><g><path d="M1194.6,1015.3c-9.8,0-19-6.1-22.6-15.8c-4.5-12.5,1.9-26.2,14.4-30.8l251.2-91.4c12.5-4.5,26.2,1.9,30.8,14.4     c4.5,12.5-1.9,26.2-14.4,30.8l-251.2,91.4C1200.1,1014.8,1197.3,1015.3,1194.6,1015.3z"/></g></g></g><text x="0" y="2063" fill="#000000" font-size="5px" font-weight="bold" font-family="'Helvetica Neue', Helvetica, Arial-Unicode, Arial, Sans-serif">Created by Iconbunny</text><text x="0" y="2068" fill="#000000" font-size="5px" font-weight="bold" font-family="'Helvetica Neue', Helvetica, Arial-Unicode, Arial, Sans-serif">from the Noun Project</text></svg>